<svg width="425" height="417" viewBox="0 0 425 417" fill="none" xmlns="http://www.w3.org/2000/svg">
<mask id="path-1-inside-1_5_2" fill="white">
<path d="M0 200C0 89.5431 89.5431 0 200 0C310.457 0 400 89.5431 400 200C400 310.457 310.457 400 200 400C89.5431 400 0 310.457 0 200Z"/>
</mask>
<path d="M200 400V399C90.0953 399 1 309.905 1 200H0H-1C-1 311.009 88.9908 401 200 401V400ZM400 200H399C399 309.905 309.905 399 200 399V400V401C311.009 401 401 311.009 401 200H400ZM200 0V1C309.905 1 399 90.0953 399 200H400H401C401 88.9908 311.009 -1 200 -1V0ZM200 0V-1C88.9908 -1 -1 88.9908 -1 200H0H1C1 90.0953 90.0953 1 200 1V0Z" fill="#1A3C2F" mask="url(#path-1-inside-1_5_2)"/>
<mask id="path-3-inside-2_5_2" fill="white">
<path d="M24.5 216.906C24.5 106.449 114.043 16.9062 224.5 16.9062C334.957 16.9062 424.5 106.449 424.5 216.906C424.5 327.363 334.957 416.906 224.5 416.906C114.043 416.906 24.5 327.363 24.5 216.906Z"/>
</mask>
<path d="M224.5 416.906V415.906C114.595 415.906 25.5 326.811 25.5 216.906H24.5H23.5C23.5 327.915 113.491 417.906 224.5 417.906V416.906ZM424.5 216.906H423.5C423.5 326.811 334.405 415.906 224.5 415.906V416.906V417.906C335.509 417.906 425.5 327.915 425.5 216.906H424.5ZM224.5 16.9062V17.9062C334.405 17.9062 423.5 107.002 423.5 216.906H424.5H425.5C425.5 105.897 335.509 15.9062 224.5 15.9062V16.9062ZM224.5 16.9062V15.9062C113.491 15.9062 23.5 105.897 23.5 216.906H24.5H25.5C25.5 107.002 114.595 17.9062 224.5 17.9062V16.9062Z" fill="#1A3C2F" mask="url(#path-3-inside-2_5_2)"/>
</svg>
