<svg width="1917" height="1092" viewBox="0 0 1917 1092" fill="none" xmlns="http://www.w3.org/2000/svg">
<g opacity="0.05" clip-path="url(#clip0_1_963)">
<circle cx="6" cy="6" r="6" fill="#1A3C2F"/>
<circle cx="58" cy="6" r="6" fill="#1A3C2F"/>
<circle cx="110" cy="6" r="6" fill="#1A3C2F"/>
<circle cx="162" cy="6" r="6" fill="#1A3C2F"/>
<circle cx="214" cy="6" r="6" fill="#1A3C2F"/>
<circle cx="266" cy="6" r="6" fill="#1A3C2F"/>
<circle cx="318" cy="6" r="6" fill="#1A3C2F"/>
<circle cx="370" cy="6" r="6" fill="#1A3C2F"/>
<circle cx="422" cy="6" r="6" fill="#1A3C2F"/>
<circle cx="474" cy="6" r="6" fill="#1A3C2F"/>
<circle cx="526" cy="6" r="6" fill="#1A3C2F"/>
<circle cx="578" cy="6" r="6" fill="#1A3C2F"/>
<circle cx="630" cy="6" r="6" fill="#1A3C2F"/>
<circle cx="682" cy="6" r="6" fill="#1A3C2F"/>
<circle cx="734" cy="6" r="6" fill="#1A3C2F"/>
<circle cx="786" cy="6" r="6" fill="#1A3C2F"/>
<circle cx="838" cy="6" r="6" fill="#1A3C2F"/>
<circle cx="890" cy="6" r="6" fill="#1A3C2F"/>
<circle cx="942" cy="6" r="6" fill="#1A3C2F"/>
<circle cx="994" cy="6" r="6" fill="#1A3C2F"/>
<circle cx="1046" cy="6" r="6" fill="#1A3C2F"/>
<circle cx="1098" cy="6" r="6" fill="#1A3C2F"/>
<circle cx="1150" cy="6" r="6" fill="#1A3C2F"/>
<circle cx="1202" cy="6" r="6" fill="#1A3C2F"/>
<circle cx="1254" cy="6" r="6" fill="#1A3C2F"/>
<circle cx="1306" cy="6" r="6" fill="#1A3C2F"/>
<circle cx="1358" cy="6" r="6" fill="#1A3C2F"/>
<circle cx="1410" cy="6" r="6" fill="#1A3C2F"/>
<circle cx="1462" cy="6" r="6" fill="#1A3C2F"/>
<circle cx="1514" cy="6" r="6" fill="#1A3C2F"/>
<circle cx="1566" cy="6" r="6" fill="#1A3C2F"/>
<circle cx="1618" cy="6" r="6" fill="#1A3C2F"/>
<circle cx="1670" cy="6" r="6" fill="#1A3C2F"/>
<circle cx="1722" cy="6" r="6" fill="#1A3C2F"/>
<circle cx="1774" cy="6" r="6" fill="#1A3C2F"/>
<circle cx="1826" cy="6" r="6" fill="#1A3C2F"/>
<circle cx="1878" cy="6" r="6" fill="#1A3C2F"/>
<circle cx="6" cy="58" r="6" fill="#1A3C2F"/>
<circle cx="58" cy="58" r="6" fill="#1A3C2F"/>
<circle cx="110" cy="58" r="6" fill="#1A3C2F"/>
<circle cx="162" cy="58" r="6" fill="#1A3C2F"/>
<circle cx="214" cy="58" r="6" fill="#1A3C2F"/>
<circle cx="266" cy="58" r="6" fill="#1A3C2F"/>
<circle cx="318" cy="58" r="6" fill="#1A3C2F"/>
<circle cx="370" cy="58" r="6" fill="#1A3C2F"/>
<circle cx="422" cy="58" r="6" fill="#1A3C2F"/>
<circle cx="474" cy="58" r="6" fill="#1A3C2F"/>
<circle cx="526" cy="58" r="6" fill="#1A3C2F"/>
<circle cx="578" cy="58" r="6" fill="#1A3C2F"/>
<circle cx="630" cy="58" r="6" fill="#1A3C2F"/>
<circle cx="682" cy="58" r="6" fill="#1A3C2F"/>
<circle cx="734" cy="58" r="6" fill="#1A3C2F"/>
<circle cx="786" cy="58" r="6" fill="#1A3C2F"/>
<circle cx="838" cy="58" r="6" fill="#1A3C2F"/>
<circle cx="890" cy="58" r="6" fill="#1A3C2F"/>
<circle cx="942" cy="58" r="6" fill="#1A3C2F"/>
<circle cx="994" cy="58" r="6" fill="#1A3C2F"/>
<circle cx="1046" cy="58" r="6" fill="#1A3C2F"/>
<circle cx="1098" cy="58" r="6" fill="#1A3C2F"/>
<circle cx="1150" cy="58" r="6" fill="#1A3C2F"/>
<circle cx="1202" cy="58" r="6" fill="#1A3C2F"/>
<circle cx="1254" cy="58" r="6" fill="#1A3C2F"/>
<circle cx="1306" cy="58" r="6" fill="#1A3C2F"/>
<circle cx="1358" cy="58" r="6" fill="#1A3C2F"/>
<circle cx="1410" cy="58" r="6" fill="#1A3C2F"/>
<circle cx="1462" cy="58" r="6" fill="#1A3C2F"/>
<circle cx="1514" cy="58" r="6" fill="#1A3C2F"/>
<circle cx="1566" cy="58" r="6" fill="#1A3C2F"/>
<circle cx="1618" cy="58" r="6" fill="#1A3C2F"/>
<circle cx="1670" cy="58" r="6" fill="#1A3C2F"/>
<circle cx="1722" cy="58" r="6" fill="#1A3C2F"/>
<circle cx="1774" cy="58" r="6" fill="#1A3C2F"/>
<circle cx="1826" cy="58" r="6" fill="#1A3C2F"/>
<circle cx="1878" cy="58" r="6" fill="#1A3C2F"/>
<circle cx="6" cy="110" r="6" fill="#1A3C2F"/>
<circle cx="58" cy="110" r="6" fill="#1A3C2F"/>
<circle cx="110" cy="110" r="6" fill="#1A3C2F"/>
<circle cx="162" cy="110" r="6" fill="#1A3C2F"/>
<circle cx="214" cy="110" r="6" fill="#1A3C2F"/>
<circle cx="266" cy="110" r="6" fill="#1A3C2F"/>
<circle cx="318" cy="110" r="6" fill="#1A3C2F"/>
<circle cx="370" cy="110" r="6" fill="#1A3C2F"/>
<circle cx="422" cy="110" r="6" fill="#1A3C2F"/>
<circle cx="474" cy="110" r="6" fill="#1A3C2F"/>
<circle cx="526" cy="110" r="6" fill="#1A3C2F"/>
<circle cx="578" cy="110" r="6" fill="#1A3C2F"/>
<circle cx="630" cy="110" r="6" fill="#1A3C2F"/>
<circle cx="682" cy="110" r="6" fill="#1A3C2F"/>
<circle cx="734" cy="110" r="6" fill="#1A3C2F"/>
<circle cx="786" cy="110" r="6" fill="#1A3C2F"/>
<circle cx="838" cy="110" r="6" fill="#1A3C2F"/>
<circle cx="890" cy="110" r="6" fill="#1A3C2F"/>
<circle cx="942" cy="110" r="6" fill="#1A3C2F"/>
<circle cx="994" cy="110" r="6" fill="#1A3C2F"/>
<circle cx="1046" cy="110" r="6" fill="#1A3C2F"/>
<circle cx="1098" cy="110" r="6" fill="#1A3C2F"/>
<circle cx="1150" cy="110" r="6" fill="#1A3C2F"/>
<circle cx="1202" cy="110" r="6" fill="#1A3C2F"/>
<circle cx="1254" cy="110" r="6" fill="#1A3C2F"/>
<circle cx="1306" cy="110" r="6" fill="#1A3C2F"/>
<circle cx="1358" cy="110" r="6" fill="#1A3C2F"/>
<circle cx="1410" cy="110" r="6" fill="#1A3C2F"/>
<circle cx="1462" cy="110" r="6" fill="#1A3C2F"/>
<circle cx="1514" cy="110" r="6" fill="#1A3C2F"/>
<circle cx="1566" cy="110" r="6" fill="#1A3C2F"/>
<circle cx="1618" cy="110" r="6" fill="#1A3C2F"/>
<circle cx="1670" cy="110" r="6" fill="#1A3C2F"/>
<circle cx="1722" cy="110" r="6" fill="#1A3C2F"/>
<circle cx="1774" cy="110" r="6" fill="#1A3C2F"/>
<circle cx="1826" cy="110" r="6" fill="#1A3C2F"/>
<circle cx="1878" cy="110" r="6" fill="#1A3C2F"/>
<circle cx="6" cy="162" r="6" fill="#1A3C2F"/>
<circle cx="58" cy="162" r="6" fill="#1A3C2F"/>
<circle cx="110" cy="162" r="6" fill="#1A3C2F"/>
<circle cx="162" cy="162" r="6" fill="#1A3C2F"/>
<circle cx="214" cy="162" r="6" fill="#1A3C2F"/>
<circle cx="266" cy="162" r="6" fill="#1A3C2F"/>
<circle cx="318" cy="162" r="6" fill="#1A3C2F"/>
<circle cx="370" cy="162" r="6" fill="#1A3C2F"/>
<circle cx="422" cy="162" r="6" fill="#1A3C2F"/>
<circle cx="474" cy="162" r="6" fill="#1A3C2F"/>
<circle cx="526" cy="162" r="6" fill="#1A3C2F"/>
<circle cx="578" cy="162" r="6" fill="#1A3C2F"/>
<circle cx="630" cy="162" r="6" fill="#1A3C2F"/>
<circle cx="682" cy="162" r="6" fill="#1A3C2F"/>
<circle cx="734" cy="162" r="6" fill="#1A3C2F"/>
<circle cx="786" cy="162" r="6" fill="#1A3C2F"/>
<circle cx="838" cy="162" r="6" fill="#1A3C2F"/>
<circle cx="890" cy="162" r="6" fill="#1A3C2F"/>
<circle cx="942" cy="162" r="6" fill="#1A3C2F"/>
<circle cx="994" cy="162" r="6" fill="#1A3C2F"/>
<circle cx="1046" cy="162" r="6" fill="#1A3C2F"/>
<circle cx="1098" cy="162" r="6" fill="#1A3C2F"/>
<circle cx="1150" cy="162" r="6" fill="#1A3C2F"/>
<circle cx="1202" cy="162" r="6" fill="#1A3C2F"/>
<circle cx="1254" cy="162" r="6" fill="#1A3C2F"/>
<circle cx="1306" cy="162" r="6" fill="#1A3C2F"/>
<circle cx="1358" cy="162" r="6" fill="#1A3C2F"/>
<circle cx="1410" cy="162" r="6" fill="#1A3C2F"/>
<circle cx="1462" cy="162" r="6" fill="#1A3C2F"/>
<circle cx="1514" cy="162" r="6" fill="#1A3C2F"/>
<circle cx="1566" cy="162" r="6" fill="#1A3C2F"/>
<circle cx="1618" cy="162" r="6" fill="#1A3C2F"/>
<circle cx="1670" cy="162" r="6" fill="#1A3C2F"/>
<circle cx="1722" cy="162" r="6" fill="#1A3C2F"/>
<circle cx="1774" cy="162" r="6" fill="#1A3C2F"/>
<circle cx="1826" cy="162" r="6" fill="#1A3C2F"/>
<circle cx="1878" cy="162" r="6" fill="#1A3C2F"/>
<circle cx="6" cy="214" r="6" fill="#1A3C2F"/>
<circle cx="58" cy="214" r="6" fill="#1A3C2F"/>
<circle cx="110" cy="214" r="6" fill="#1A3C2F"/>
<circle cx="162" cy="214" r="6" fill="#1A3C2F"/>
<circle cx="214" cy="214" r="6" fill="#1A3C2F"/>
<circle cx="266" cy="214" r="6" fill="#1A3C2F"/>
<circle cx="318" cy="214" r="6" fill="#1A3C2F"/>
<circle cx="370" cy="214" r="6" fill="#1A3C2F"/>
<circle cx="422" cy="214" r="6" fill="#1A3C2F"/>
<circle cx="474" cy="214" r="6" fill="#1A3C2F"/>
<circle cx="526" cy="214" r="6" fill="#1A3C2F"/>
<circle cx="578" cy="214" r="6" fill="#1A3C2F"/>
<circle cx="630" cy="214" r="6" fill="#1A3C2F"/>
<circle cx="682" cy="214" r="6" fill="#1A3C2F"/>
<circle cx="734" cy="214" r="6" fill="#1A3C2F"/>
<circle cx="786" cy="214" r="6" fill="#1A3C2F"/>
<circle cx="838" cy="214" r="6" fill="#1A3C2F"/>
<circle cx="890" cy="214" r="6" fill="#1A3C2F"/>
<circle cx="942" cy="214" r="6" fill="#1A3C2F"/>
<circle cx="994" cy="214" r="6" fill="#1A3C2F"/>
<circle cx="1046" cy="214" r="6" fill="#1A3C2F"/>
<circle cx="1098" cy="214" r="6" fill="#1A3C2F"/>
<circle cx="1150" cy="214" r="6" fill="#1A3C2F"/>
<circle cx="1202" cy="214" r="6" fill="#1A3C2F"/>
<circle cx="1254" cy="214" r="6" fill="#1A3C2F"/>
<circle cx="1306" cy="214" r="6" fill="#1A3C2F"/>
<circle cx="1358" cy="214" r="6" fill="#1A3C2F"/>
<circle cx="1410" cy="214" r="6" fill="#1A3C2F"/>
<circle cx="1462" cy="214" r="6" fill="#1A3C2F"/>
<circle cx="1514" cy="214" r="6" fill="#1A3C2F"/>
<circle cx="1566" cy="214" r="6" fill="#1A3C2F"/>
<circle cx="1618" cy="214" r="6" fill="#1A3C2F"/>
<circle cx="1670" cy="214" r="6" fill="#1A3C2F"/>
<circle cx="1722" cy="214" r="6" fill="#1A3C2F"/>
<circle cx="1774" cy="214" r="6" fill="#1A3C2F"/>
<circle cx="1826" cy="214" r="6" fill="#1A3C2F"/>
<circle cx="1878" cy="214" r="6" fill="#1A3C2F"/>
<circle cx="6" cy="266" r="6" fill="#1A3C2F"/>
<circle cx="58" cy="266" r="6" fill="#1A3C2F"/>
<circle cx="110" cy="266" r="6" fill="#1A3C2F"/>
<circle cx="162" cy="266" r="6" fill="#1A3C2F"/>
<circle cx="214" cy="266" r="6" fill="#1A3C2F"/>
<circle cx="266" cy="266" r="6" fill="#1A3C2F"/>
<circle cx="318" cy="266" r="6" fill="#1A3C2F"/>
<circle cx="370" cy="266" r="6" fill="#1A3C2F"/>
<circle cx="422" cy="266" r="6" fill="#1A3C2F"/>
<circle cx="474" cy="266" r="6" fill="#1A3C2F"/>
<circle cx="526" cy="266" r="6" fill="#1A3C2F"/>
<circle cx="578" cy="266" r="6" fill="#1A3C2F"/>
<circle cx="630" cy="266" r="6" fill="#1A3C2F"/>
<circle cx="682" cy="266" r="6" fill="#1A3C2F"/>
<circle cx="734" cy="266" r="6" fill="#1A3C2F"/>
<circle cx="786" cy="266" r="6" fill="#1A3C2F"/>
<circle cx="838" cy="266" r="6" fill="#1A3C2F"/>
<circle cx="890" cy="266" r="6" fill="#1A3C2F"/>
<circle cx="942" cy="266" r="6" fill="#1A3C2F"/>
<circle cx="994" cy="266" r="6" fill="#1A3C2F"/>
<circle cx="1046" cy="266" r="6" fill="#1A3C2F"/>
<circle cx="1098" cy="266" r="6" fill="#1A3C2F"/>
<circle cx="1150" cy="266" r="6" fill="#1A3C2F"/>
<circle cx="1202" cy="266" r="6" fill="#1A3C2F"/>
<circle cx="1254" cy="266" r="6" fill="#1A3C2F"/>
<circle cx="1306" cy="266" r="6" fill="#1A3C2F"/>
<circle cx="1358" cy="266" r="6" fill="#1A3C2F"/>
<circle cx="1410" cy="266" r="6" fill="#1A3C2F"/>
<circle cx="1462" cy="266" r="6" fill="#1A3C2F"/>
<circle cx="1514" cy="266" r="6" fill="#1A3C2F"/>
<circle cx="1566" cy="266" r="6" fill="#1A3C2F"/>
<circle cx="1618" cy="266" r="6" fill="#1A3C2F"/>
<circle cx="1670" cy="266" r="6" fill="#1A3C2F"/>
<circle cx="1722" cy="266" r="6" fill="#1A3C2F"/>
<circle cx="1774" cy="266" r="6" fill="#1A3C2F"/>
<circle cx="1826" cy="266" r="6" fill="#1A3C2F"/>
<circle cx="1878" cy="266" r="6" fill="#1A3C2F"/>
<circle cx="6" cy="318" r="6" fill="#1A3C2F"/>
<circle cx="58" cy="318" r="6" fill="#1A3C2F"/>
<circle cx="110" cy="318" r="6" fill="#1A3C2F"/>
<circle cx="162" cy="318" r="6" fill="#1A3C2F"/>
<circle cx="214" cy="318" r="6" fill="#1A3C2F"/>
<circle cx="266" cy="318" r="6" fill="#1A3C2F"/>
<circle cx="318" cy="318" r="6" fill="#1A3C2F"/>
<circle cx="370" cy="318" r="6" fill="#1A3C2F"/>
<circle cx="422" cy="318" r="6" fill="#1A3C2F"/>
<circle cx="474" cy="318" r="6" fill="#1A3C2F"/>
<circle cx="526" cy="318" r="6" fill="#1A3C2F"/>
<circle cx="578" cy="318" r="6" fill="#1A3C2F"/>
<circle cx="630" cy="318" r="6" fill="#1A3C2F"/>
<circle cx="682" cy="318" r="6" fill="#1A3C2F"/>
<circle cx="734" cy="318" r="6" fill="#1A3C2F"/>
<circle cx="786" cy="318" r="6" fill="#1A3C2F"/>
<circle cx="838" cy="318" r="6" fill="#1A3C2F"/>
<circle cx="890" cy="318" r="6" fill="#1A3C2F"/>
<circle cx="942" cy="318" r="6" fill="#1A3C2F"/>
<circle cx="994" cy="318" r="6" fill="#1A3C2F"/>
<circle cx="1046" cy="318" r="6" fill="#1A3C2F"/>
<circle cx="1098" cy="318" r="6" fill="#1A3C2F"/>
<circle cx="1150" cy="318" r="6" fill="#1A3C2F"/>
<circle cx="1202" cy="318" r="6" fill="#1A3C2F"/>
<circle cx="1254" cy="318" r="6" fill="#1A3C2F"/>
<circle cx="1306" cy="318" r="6" fill="#1A3C2F"/>
<circle cx="1358" cy="318" r="6" fill="#1A3C2F"/>
<circle cx="1410" cy="318" r="6" fill="#1A3C2F"/>
<circle cx="1462" cy="318" r="6" fill="#1A3C2F"/>
<circle cx="1514" cy="318" r="6" fill="#1A3C2F"/>
<circle cx="1566" cy="318" r="6" fill="#1A3C2F"/>
<circle cx="1618" cy="318" r="6" fill="#1A3C2F"/>
<circle cx="1670" cy="318" r="6" fill="#1A3C2F"/>
<circle cx="1722" cy="318" r="6" fill="#1A3C2F"/>
<circle cx="1774" cy="318" r="6" fill="#1A3C2F"/>
<circle cx="1826" cy="318" r="6" fill="#1A3C2F"/>
<circle cx="1878" cy="318" r="6" fill="#1A3C2F"/>
<circle cx="6" cy="370" r="6" fill="#1A3C2F"/>
<circle cx="58" cy="370" r="6" fill="#1A3C2F"/>
<circle cx="110" cy="370" r="6" fill="#1A3C2F"/>
<circle cx="162" cy="370" r="6" fill="#1A3C2F"/>
<circle cx="214" cy="370" r="6" fill="#1A3C2F"/>
<circle cx="266" cy="370" r="6" fill="#1A3C2F"/>
<circle cx="318" cy="370" r="6" fill="#1A3C2F"/>
<circle cx="370" cy="370" r="6" fill="#1A3C2F"/>
<circle cx="422" cy="370" r="6" fill="#1A3C2F"/>
<circle cx="474" cy="370" r="6" fill="#1A3C2F"/>
<circle cx="526" cy="370" r="6" fill="#1A3C2F"/>
<circle cx="578" cy="370" r="6" fill="#1A3C2F"/>
<circle cx="630" cy="370" r="6" fill="#1A3C2F"/>
<circle cx="682" cy="370" r="6" fill="#1A3C2F"/>
<circle cx="734" cy="370" r="6" fill="#1A3C2F"/>
<circle cx="786" cy="370" r="6" fill="#1A3C2F"/>
<circle cx="838" cy="370" r="6" fill="#1A3C2F"/>
<circle cx="890" cy="370" r="6" fill="#1A3C2F"/>
<circle cx="942" cy="370" r="6" fill="#1A3C2F"/>
<circle cx="994" cy="370" r="6" fill="#1A3C2F"/>
<circle cx="1046" cy="370" r="6" fill="#1A3C2F"/>
<circle cx="1098" cy="370" r="6" fill="#1A3C2F"/>
<circle cx="1150" cy="370" r="6" fill="#1A3C2F"/>
<circle cx="1202" cy="370" r="6" fill="#1A3C2F"/>
<circle cx="1254" cy="370" r="6" fill="#1A3C2F"/>
<circle cx="1306" cy="370" r="6" fill="#1A3C2F"/>
<circle cx="1358" cy="370" r="6" fill="#1A3C2F"/>
<circle cx="1410" cy="370" r="6" fill="#1A3C2F"/>
<circle cx="1462" cy="370" r="6" fill="#1A3C2F"/>
<circle cx="1514" cy="370" r="6" fill="#1A3C2F"/>
<circle cx="1566" cy="370" r="6" fill="#1A3C2F"/>
<circle cx="1618" cy="370" r="6" fill="#1A3C2F"/>
<circle cx="1670" cy="370" r="6" fill="#1A3C2F"/>
<circle cx="1722" cy="370" r="6" fill="#1A3C2F"/>
<circle cx="1774" cy="370" r="6" fill="#1A3C2F"/>
<circle cx="1826" cy="370" r="6" fill="#1A3C2F"/>
<circle cx="1878" cy="370" r="6" fill="#1A3C2F"/>
<circle cx="6" cy="422" r="6" fill="#1A3C2F"/>
<circle cx="58" cy="422" r="6" fill="#1A3C2F"/>
<circle cx="110" cy="422" r="6" fill="#1A3C2F"/>
<circle cx="162" cy="422" r="6" fill="#1A3C2F"/>
<circle cx="214" cy="422" r="6" fill="#1A3C2F"/>
<circle cx="266" cy="422" r="6" fill="#1A3C2F"/>
<circle cx="318" cy="422" r="6" fill="#1A3C2F"/>
<circle cx="370" cy="422" r="6" fill="#1A3C2F"/>
<circle cx="422" cy="422" r="6" fill="#1A3C2F"/>
<circle cx="474" cy="422" r="6" fill="#1A3C2F"/>
<circle cx="526" cy="422" r="6" fill="#1A3C2F"/>
<circle cx="578" cy="422" r="6" fill="#1A3C2F"/>
<circle cx="630" cy="422" r="6" fill="#1A3C2F"/>
<circle cx="682" cy="422" r="6" fill="#1A3C2F"/>
<circle cx="734" cy="422" r="6" fill="#1A3C2F"/>
<circle cx="786" cy="422" r="6" fill="#1A3C2F"/>
<circle cx="838" cy="422" r="6" fill="#1A3C2F"/>
<circle cx="890" cy="422" r="6" fill="#1A3C2F"/>
<circle cx="942" cy="422" r="6" fill="#1A3C2F"/>
<circle cx="994" cy="422" r="6" fill="#1A3C2F"/>
<circle cx="1046" cy="422" r="6" fill="#1A3C2F"/>
<circle cx="1098" cy="422" r="6" fill="#1A3C2F"/>
<circle cx="1150" cy="422" r="6" fill="#1A3C2F"/>
<circle cx="1202" cy="422" r="6" fill="#1A3C2F"/>
<circle cx="1254" cy="422" r="6" fill="#1A3C2F"/>
<circle cx="1306" cy="422" r="6" fill="#1A3C2F"/>
<circle cx="1358" cy="422" r="6" fill="#1A3C2F"/>
<circle cx="1410" cy="422" r="6" fill="#1A3C2F"/>
<circle cx="1462" cy="422" r="6" fill="#1A3C2F"/>
<circle cx="1514" cy="422" r="6" fill="#1A3C2F"/>
<circle cx="1566" cy="422" r="6" fill="#1A3C2F"/>
<circle cx="1618" cy="422" r="6" fill="#1A3C2F"/>
<circle cx="1670" cy="422" r="6" fill="#1A3C2F"/>
<circle cx="1722" cy="422" r="6" fill="#1A3C2F"/>
<circle cx="1774" cy="422" r="6" fill="#1A3C2F"/>
<circle cx="1826" cy="422" r="6" fill="#1A3C2F"/>
<circle cx="1878" cy="422" r="6" fill="#1A3C2F"/>
<circle cx="6" cy="474" r="6" fill="#1A3C2F"/>
<circle cx="58" cy="474" r="6" fill="#1A3C2F"/>
<circle cx="110" cy="474" r="6" fill="#1A3C2F"/>
<circle cx="162" cy="474" r="6" fill="#1A3C2F"/>
<circle cx="214" cy="474" r="6" fill="#1A3C2F"/>
<circle cx="266" cy="474" r="6" fill="#1A3C2F"/>
<circle cx="318" cy="474" r="6" fill="#1A3C2F"/>
<circle cx="370" cy="474" r="6" fill="#1A3C2F"/>
<circle cx="422" cy="474" r="6" fill="#1A3C2F"/>
<circle cx="474" cy="474" r="6" fill="#1A3C2F"/>
<circle cx="526" cy="474" r="6" fill="#1A3C2F"/>
<circle cx="578" cy="474" r="6" fill="#1A3C2F"/>
<circle cx="630" cy="474" r="6" fill="#1A3C2F"/>
<circle cx="682" cy="474" r="6" fill="#1A3C2F"/>
<circle cx="734" cy="474" r="6" fill="#1A3C2F"/>
<circle cx="786" cy="474" r="6" fill="#1A3C2F"/>
<circle cx="838" cy="474" r="6" fill="#1A3C2F"/>
<circle cx="890" cy="474" r="6" fill="#1A3C2F"/>
<circle cx="942" cy="474" r="6" fill="#1A3C2F"/>
<circle cx="994" cy="474" r="6" fill="#1A3C2F"/>
<circle cx="1046" cy="474" r="6" fill="#1A3C2F"/>
<circle cx="1098" cy="474" r="6" fill="#1A3C2F"/>
<circle cx="1150" cy="474" r="6" fill="#1A3C2F"/>
<circle cx="1202" cy="474" r="6" fill="#1A3C2F"/>
<circle cx="1254" cy="474" r="6" fill="#1A3C2F"/>
<circle cx="1306" cy="474" r="6" fill="#1A3C2F"/>
<circle cx="1358" cy="474" r="6" fill="#1A3C2F"/>
<circle cx="1410" cy="474" r="6" fill="#1A3C2F"/>
<circle cx="1462" cy="474" r="6" fill="#1A3C2F"/>
<circle cx="1514" cy="474" r="6" fill="#1A3C2F"/>
<circle cx="1566" cy="474" r="6" fill="#1A3C2F"/>
<circle cx="1618" cy="474" r="6" fill="#1A3C2F"/>
<circle cx="1670" cy="474" r="6" fill="#1A3C2F"/>
<circle cx="1722" cy="474" r="6" fill="#1A3C2F"/>
<circle cx="1774" cy="474" r="6" fill="#1A3C2F"/>
<circle cx="1826" cy="474" r="6" fill="#1A3C2F"/>
<circle cx="1878" cy="474" r="6" fill="#1A3C2F"/>
<circle cx="6" cy="526" r="6" fill="#1A3C2F"/>
<circle cx="58" cy="526" r="6" fill="#1A3C2F"/>
<circle cx="110" cy="526" r="6" fill="#1A3C2F"/>
<circle cx="162" cy="526" r="6" fill="#1A3C2F"/>
<circle cx="214" cy="526" r="6" fill="#1A3C2F"/>
<circle cx="266" cy="526" r="6" fill="#1A3C2F"/>
<circle cx="318" cy="526" r="6" fill="#1A3C2F"/>
<circle cx="370" cy="526" r="6" fill="#1A3C2F"/>
<circle cx="422" cy="526" r="6" fill="#1A3C2F"/>
<circle cx="474" cy="526" r="6" fill="#1A3C2F"/>
<circle cx="526" cy="526" r="6" fill="#1A3C2F"/>
<circle cx="578" cy="526" r="6" fill="#1A3C2F"/>
<circle cx="630" cy="526" r="6" fill="#1A3C2F"/>
<circle cx="682" cy="526" r="6" fill="#1A3C2F"/>
<circle cx="734" cy="526" r="6" fill="#1A3C2F"/>
<circle cx="786" cy="526" r="6" fill="#1A3C2F"/>
<circle cx="838" cy="526" r="6" fill="#1A3C2F"/>
<circle cx="890" cy="526" r="6" fill="#1A3C2F"/>
<circle cx="942" cy="526" r="6" fill="#1A3C2F"/>
<circle cx="994" cy="526" r="6" fill="#1A3C2F"/>
<circle cx="1046" cy="526" r="6" fill="#1A3C2F"/>
<circle cx="1098" cy="526" r="6" fill="#1A3C2F"/>
<circle cx="1150" cy="526" r="6" fill="#1A3C2F"/>
<circle cx="1202" cy="526" r="6" fill="#1A3C2F"/>
<circle cx="1254" cy="526" r="6" fill="#1A3C2F"/>
<circle cx="1306" cy="526" r="6" fill="#1A3C2F"/>
<circle cx="1358" cy="526" r="6" fill="#1A3C2F"/>
<circle cx="1410" cy="526" r="6" fill="#1A3C2F"/>
<circle cx="1462" cy="526" r="6" fill="#1A3C2F"/>
<circle cx="1514" cy="526" r="6" fill="#1A3C2F"/>
<circle cx="1566" cy="526" r="6" fill="#1A3C2F"/>
<circle cx="1618" cy="526" r="6" fill="#1A3C2F"/>
<circle cx="1670" cy="526" r="6" fill="#1A3C2F"/>
<circle cx="1722" cy="526" r="6" fill="#1A3C2F"/>
<circle cx="1774" cy="526" r="6" fill="#1A3C2F"/>
<circle cx="1826" cy="526" r="6" fill="#1A3C2F"/>
<circle cx="1878" cy="526" r="6" fill="#1A3C2F"/>
<circle cx="6" cy="578" r="6" fill="#1A3C2F"/>
<circle cx="58" cy="578" r="6" fill="#1A3C2F"/>
<circle cx="110" cy="578" r="6" fill="#1A3C2F"/>
<circle cx="162" cy="578" r="6" fill="#1A3C2F"/>
<circle cx="214" cy="578" r="6" fill="#1A3C2F"/>
<circle cx="266" cy="578" r="6" fill="#1A3C2F"/>
<circle cx="318" cy="578" r="6" fill="#1A3C2F"/>
<circle cx="370" cy="578" r="6" fill="#1A3C2F"/>
<circle cx="422" cy="578" r="6" fill="#1A3C2F"/>
<circle cx="474" cy="578" r="6" fill="#1A3C2F"/>
<circle cx="526" cy="578" r="6" fill="#1A3C2F"/>
<circle cx="578" cy="578" r="6" fill="#1A3C2F"/>
<circle cx="630" cy="578" r="6" fill="#1A3C2F"/>
<circle cx="682" cy="578" r="6" fill="#1A3C2F"/>
<circle cx="734" cy="578" r="6" fill="#1A3C2F"/>
<circle cx="786" cy="578" r="6" fill="#1A3C2F"/>
<circle cx="838" cy="578" r="6" fill="#1A3C2F"/>
<circle cx="890" cy="578" r="6" fill="#1A3C2F"/>
<circle cx="942" cy="578" r="6" fill="#1A3C2F"/>
<circle cx="994" cy="578" r="6" fill="#1A3C2F"/>
<circle cx="1046" cy="578" r="6" fill="#1A3C2F"/>
<circle cx="1098" cy="578" r="6" fill="#1A3C2F"/>
<circle cx="1150" cy="578" r="6" fill="#1A3C2F"/>
<circle cx="1202" cy="578" r="6" fill="#1A3C2F"/>
<circle cx="1254" cy="578" r="6" fill="#1A3C2F"/>
<circle cx="1306" cy="578" r="6" fill="#1A3C2F"/>
<circle cx="1358" cy="578" r="6" fill="#1A3C2F"/>
<circle cx="1410" cy="578" r="6" fill="#1A3C2F"/>
<circle cx="1462" cy="578" r="6" fill="#1A3C2F"/>
<circle cx="1514" cy="578" r="6" fill="#1A3C2F"/>
<circle cx="1566" cy="578" r="6" fill="#1A3C2F"/>
<circle cx="1618" cy="578" r="6" fill="#1A3C2F"/>
<circle cx="1670" cy="578" r="6" fill="#1A3C2F"/>
<circle cx="1722" cy="578" r="6" fill="#1A3C2F"/>
<circle cx="1774" cy="578" r="6" fill="#1A3C2F"/>
<circle cx="1826" cy="578" r="6" fill="#1A3C2F"/>
<circle cx="1878" cy="578" r="6" fill="#1A3C2F"/>
<circle cx="6" cy="630" r="6" fill="#1A3C2F"/>
<circle cx="58" cy="630" r="6" fill="#1A3C2F"/>
<circle cx="110" cy="630" r="6" fill="#1A3C2F"/>
<circle cx="162" cy="630" r="6" fill="#1A3C2F"/>
<circle cx="214" cy="630" r="6" fill="#1A3C2F"/>
<circle cx="266" cy="630" r="6" fill="#1A3C2F"/>
<circle cx="318" cy="630" r="6" fill="#1A3C2F"/>
<circle cx="370" cy="630" r="6" fill="#1A3C2F"/>
<circle cx="422" cy="630" r="6" fill="#1A3C2F"/>
<circle cx="474" cy="630" r="6" fill="#1A3C2F"/>
<circle cx="526" cy="630" r="6" fill="#1A3C2F"/>
<circle cx="578" cy="630" r="6" fill="#1A3C2F"/>
<circle cx="630" cy="630" r="6" fill="#1A3C2F"/>
<circle cx="682" cy="630" r="6" fill="#1A3C2F"/>
<circle cx="734" cy="630" r="6" fill="#1A3C2F"/>
<circle cx="786" cy="630" r="6" fill="#1A3C2F"/>
<circle cx="838" cy="630" r="6" fill="#1A3C2F"/>
<circle cx="890" cy="630" r="6" fill="#1A3C2F"/>
<circle cx="942" cy="630" r="6" fill="#1A3C2F"/>
<circle cx="994" cy="630" r="6" fill="#1A3C2F"/>
<circle cx="1046" cy="630" r="6" fill="#1A3C2F"/>
<circle cx="1098" cy="630" r="6" fill="#1A3C2F"/>
<circle cx="1150" cy="630" r="6" fill="#1A3C2F"/>
<circle cx="1202" cy="630" r="6" fill="#1A3C2F"/>
<circle cx="1254" cy="630" r="6" fill="#1A3C2F"/>
<circle cx="1306" cy="630" r="6" fill="#1A3C2F"/>
<circle cx="1358" cy="630" r="6" fill="#1A3C2F"/>
<circle cx="1410" cy="630" r="6" fill="#1A3C2F"/>
<circle cx="1462" cy="630" r="6" fill="#1A3C2F"/>
<circle cx="1514" cy="630" r="6" fill="#1A3C2F"/>
<circle cx="1566" cy="630" r="6" fill="#1A3C2F"/>
<circle cx="1618" cy="630" r="6" fill="#1A3C2F"/>
<circle cx="1670" cy="630" r="6" fill="#1A3C2F"/>
<circle cx="1722" cy="630" r="6" fill="#1A3C2F"/>
<circle cx="1774" cy="630" r="6" fill="#1A3C2F"/>
<circle cx="1826" cy="630" r="6" fill="#1A3C2F"/>
<circle cx="1878" cy="630" r="6" fill="#1A3C2F"/>
<circle cx="6" cy="682" r="6" fill="#1A3C2F"/>
<circle cx="58" cy="682" r="6" fill="#1A3C2F"/>
<circle cx="110" cy="682" r="6" fill="#1A3C2F"/>
<circle cx="162" cy="682" r="6" fill="#1A3C2F"/>
<circle cx="214" cy="682" r="6" fill="#1A3C2F"/>
<circle cx="266" cy="682" r="6" fill="#1A3C2F"/>
<circle cx="318" cy="682" r="6" fill="#1A3C2F"/>
<circle cx="370" cy="682" r="6" fill="#1A3C2F"/>
<circle cx="422" cy="682" r="6" fill="#1A3C2F"/>
<circle cx="474" cy="682" r="6" fill="#1A3C2F"/>
<circle cx="526" cy="682" r="6" fill="#1A3C2F"/>
<circle cx="578" cy="682" r="6" fill="#1A3C2F"/>
<circle cx="630" cy="682" r="6" fill="#1A3C2F"/>
<circle cx="682" cy="682" r="6" fill="#1A3C2F"/>
<circle cx="734" cy="682" r="6" fill="#1A3C2F"/>
<circle cx="786" cy="682" r="6" fill="#1A3C2F"/>
<circle cx="838" cy="682" r="6" fill="#1A3C2F"/>
<circle cx="890" cy="682" r="6" fill="#1A3C2F"/>
<circle cx="942" cy="682" r="6" fill="#1A3C2F"/>
<circle cx="994" cy="682" r="6" fill="#1A3C2F"/>
<circle cx="1046" cy="682" r="6" fill="#1A3C2F"/>
<circle cx="1098" cy="682" r="6" fill="#1A3C2F"/>
<circle cx="1150" cy="682" r="6" fill="#1A3C2F"/>
<circle cx="1202" cy="682" r="6" fill="#1A3C2F"/>
<circle cx="1254" cy="682" r="6" fill="#1A3C2F"/>
<circle cx="1306" cy="682" r="6" fill="#1A3C2F"/>
<circle cx="1358" cy="682" r="6" fill="#1A3C2F"/>
<circle cx="1410" cy="682" r="6" fill="#1A3C2F"/>
<circle cx="1462" cy="682" r="6" fill="#1A3C2F"/>
<circle cx="1514" cy="682" r="6" fill="#1A3C2F"/>
<circle cx="1566" cy="682" r="6" fill="#1A3C2F"/>
<circle cx="1618" cy="682" r="6" fill="#1A3C2F"/>
<circle cx="1670" cy="682" r="6" fill="#1A3C2F"/>
<circle cx="1722" cy="682" r="6" fill="#1A3C2F"/>
<circle cx="1774" cy="682" r="6" fill="#1A3C2F"/>
<circle cx="1826" cy="682" r="6" fill="#1A3C2F"/>
<circle cx="1878" cy="682" r="6" fill="#1A3C2F"/>
<circle cx="6" cy="734" r="6" fill="#1A3C2F"/>
<circle cx="58" cy="734" r="6" fill="#1A3C2F"/>
<circle cx="110" cy="734" r="6" fill="#1A3C2F"/>
<circle cx="162" cy="734" r="6" fill="#1A3C2F"/>
<circle cx="214" cy="734" r="6" fill="#1A3C2F"/>
<circle cx="266" cy="734" r="6" fill="#1A3C2F"/>
<circle cx="318" cy="734" r="6" fill="#1A3C2F"/>
<circle cx="370" cy="734" r="6" fill="#1A3C2F"/>
<circle cx="422" cy="734" r="6" fill="#1A3C2F"/>
<circle cx="474" cy="734" r="6" fill="#1A3C2F"/>
<circle cx="526" cy="734" r="6" fill="#1A3C2F"/>
<circle cx="578" cy="734" r="6" fill="#1A3C2F"/>
<circle cx="630" cy="734" r="6" fill="#1A3C2F"/>
<circle cx="682" cy="734" r="6" fill="#1A3C2F"/>
<circle cx="734" cy="734" r="6" fill="#1A3C2F"/>
<circle cx="786" cy="734" r="6" fill="#1A3C2F"/>
<circle cx="838" cy="734" r="6" fill="#1A3C2F"/>
<circle cx="890" cy="734" r="6" fill="#1A3C2F"/>
<circle cx="942" cy="734" r="6" fill="#1A3C2F"/>
<circle cx="994" cy="734" r="6" fill="#1A3C2F"/>
<circle cx="1046" cy="734" r="6" fill="#1A3C2F"/>
<circle cx="1098" cy="734" r="6" fill="#1A3C2F"/>
<circle cx="1150" cy="734" r="6" fill="#1A3C2F"/>
<circle cx="1202" cy="734" r="6" fill="#1A3C2F"/>
<circle cx="1254" cy="734" r="6" fill="#1A3C2F"/>
<circle cx="1306" cy="734" r="6" fill="#1A3C2F"/>
<circle cx="1358" cy="734" r="6" fill="#1A3C2F"/>
<circle cx="1410" cy="734" r="6" fill="#1A3C2F"/>
<circle cx="1462" cy="734" r="6" fill="#1A3C2F"/>
<circle cx="1514" cy="734" r="6" fill="#1A3C2F"/>
<circle cx="1566" cy="734" r="6" fill="#1A3C2F"/>
<circle cx="1618" cy="734" r="6" fill="#1A3C2F"/>
<circle cx="1670" cy="734" r="6" fill="#1A3C2F"/>
<circle cx="1722" cy="734" r="6" fill="#1A3C2F"/>
<circle cx="1774" cy="734" r="6" fill="#1A3C2F"/>
<circle cx="1826" cy="734" r="6" fill="#1A3C2F"/>
<circle cx="1878" cy="734" r="6" fill="#1A3C2F"/>
<circle cx="6" cy="786" r="6" fill="#1A3C2F"/>
<circle cx="58" cy="786" r="6" fill="#1A3C2F"/>
<circle cx="110" cy="786" r="6" fill="#1A3C2F"/>
<circle cx="162" cy="786" r="6" fill="#1A3C2F"/>
<circle cx="214" cy="786" r="6" fill="#1A3C2F"/>
<circle cx="266" cy="786" r="6" fill="#1A3C2F"/>
<circle cx="318" cy="786" r="6" fill="#1A3C2F"/>
<circle cx="370" cy="786" r="6" fill="#1A3C2F"/>
<circle cx="422" cy="786" r="6" fill="#1A3C2F"/>
<circle cx="474" cy="786" r="6" fill="#1A3C2F"/>
<circle cx="526" cy="786" r="6" fill="#1A3C2F"/>
<circle cx="578" cy="786" r="6" fill="#1A3C2F"/>
<circle cx="630" cy="786" r="6" fill="#1A3C2F"/>
<circle cx="682" cy="786" r="6" fill="#1A3C2F"/>
<circle cx="734" cy="786" r="6" fill="#1A3C2F"/>
<circle cx="786" cy="786" r="6" fill="#1A3C2F"/>
<circle cx="838" cy="786" r="6" fill="#1A3C2F"/>
<circle cx="890" cy="786" r="6" fill="#1A3C2F"/>
<circle cx="942" cy="786" r="6" fill="#1A3C2F"/>
<circle cx="994" cy="786" r="6" fill="#1A3C2F"/>
<circle cx="1046" cy="786" r="6" fill="#1A3C2F"/>
<circle cx="1098" cy="786" r="6" fill="#1A3C2F"/>
<circle cx="1150" cy="786" r="6" fill="#1A3C2F"/>
<circle cx="1202" cy="786" r="6" fill="#1A3C2F"/>
<circle cx="1254" cy="786" r="6" fill="#1A3C2F"/>
<circle cx="1306" cy="786" r="6" fill="#1A3C2F"/>
<circle cx="1358" cy="786" r="6" fill="#1A3C2F"/>
<circle cx="1410" cy="786" r="6" fill="#1A3C2F"/>
<circle cx="1462" cy="786" r="6" fill="#1A3C2F"/>
<circle cx="1514" cy="786" r="6" fill="#1A3C2F"/>
<circle cx="1566" cy="786" r="6" fill="#1A3C2F"/>
<circle cx="1618" cy="786" r="6" fill="#1A3C2F"/>
<circle cx="1670" cy="786" r="6" fill="#1A3C2F"/>
<circle cx="1722" cy="786" r="6" fill="#1A3C2F"/>
<circle cx="1774" cy="786" r="6" fill="#1A3C2F"/>
<circle cx="1826" cy="786" r="6" fill="#1A3C2F"/>
<circle cx="1878" cy="786" r="6" fill="#1A3C2F"/>
<circle cx="6" cy="838" r="6" fill="#1A3C2F"/>
<circle cx="58" cy="838" r="6" fill="#1A3C2F"/>
<circle cx="110" cy="838" r="6" fill="#1A3C2F"/>
<circle cx="162" cy="838" r="6" fill="#1A3C2F"/>
<circle cx="214" cy="838" r="6" fill="#1A3C2F"/>
<circle cx="266" cy="838" r="6" fill="#1A3C2F"/>
<circle cx="318" cy="838" r="6" fill="#1A3C2F"/>
<circle cx="370" cy="838" r="6" fill="#1A3C2F"/>
<circle cx="422" cy="838" r="6" fill="#1A3C2F"/>
<circle cx="474" cy="838" r="6" fill="#1A3C2F"/>
<circle cx="526" cy="838" r="6" fill="#1A3C2F"/>
<circle cx="578" cy="838" r="6" fill="#1A3C2F"/>
<circle cx="630" cy="838" r="6" fill="#1A3C2F"/>
<circle cx="682" cy="838" r="6" fill="#1A3C2F"/>
<circle cx="734" cy="838" r="6" fill="#1A3C2F"/>
<circle cx="786" cy="838" r="6" fill="#1A3C2F"/>
<circle cx="838" cy="838" r="6" fill="#1A3C2F"/>
<circle cx="890" cy="838" r="6" fill="#1A3C2F"/>
<circle cx="942" cy="838" r="6" fill="#1A3C2F"/>
<circle cx="994" cy="838" r="6" fill="#1A3C2F"/>
<circle cx="1046" cy="838" r="6" fill="#1A3C2F"/>
<circle cx="1098" cy="838" r="6" fill="#1A3C2F"/>
<circle cx="1150" cy="838" r="6" fill="#1A3C2F"/>
<circle cx="1202" cy="838" r="6" fill="#1A3C2F"/>
<circle cx="1254" cy="838" r="6" fill="#1A3C2F"/>
<circle cx="1306" cy="838" r="6" fill="#1A3C2F"/>
<circle cx="1358" cy="838" r="6" fill="#1A3C2F"/>
<circle cx="1410" cy="838" r="6" fill="#1A3C2F"/>
<circle cx="1462" cy="838" r="6" fill="#1A3C2F"/>
<circle cx="1514" cy="838" r="6" fill="#1A3C2F"/>
<circle cx="1566" cy="838" r="6" fill="#1A3C2F"/>
<circle cx="1618" cy="838" r="6" fill="#1A3C2F"/>
<circle cx="1670" cy="838" r="6" fill="#1A3C2F"/>
<circle cx="1722" cy="838" r="6" fill="#1A3C2F"/>
<circle cx="1774" cy="838" r="6" fill="#1A3C2F"/>
<circle cx="1826" cy="838" r="6" fill="#1A3C2F"/>
<circle cx="1878" cy="838" r="6" fill="#1A3C2F"/>
<circle cx="6" cy="890" r="6" fill="#1A3C2F"/>
<circle cx="58" cy="890" r="6" fill="#1A3C2F"/>
<circle cx="110" cy="890" r="6" fill="#1A3C2F"/>
<circle cx="162" cy="890" r="6" fill="#1A3C2F"/>
<circle cx="214" cy="890" r="6" fill="#1A3C2F"/>
<circle cx="266" cy="890" r="6" fill="#1A3C2F"/>
<circle cx="318" cy="890" r="6" fill="#1A3C2F"/>
<circle cx="370" cy="890" r="6" fill="#1A3C2F"/>
<circle cx="422" cy="890" r="6" fill="#1A3C2F"/>
<circle cx="474" cy="890" r="6" fill="#1A3C2F"/>
<circle cx="526" cy="890" r="6" fill="#1A3C2F"/>
<circle cx="578" cy="890" r="6" fill="#1A3C2F"/>
<circle cx="630" cy="890" r="6" fill="#1A3C2F"/>
<circle cx="682" cy="890" r="6" fill="#1A3C2F"/>
<circle cx="734" cy="890" r="6" fill="#1A3C2F"/>
<circle cx="786" cy="890" r="6" fill="#1A3C2F"/>
<circle cx="838" cy="890" r="6" fill="#1A3C2F"/>
<circle cx="890" cy="890" r="6" fill="#1A3C2F"/>
<circle cx="942" cy="890" r="6" fill="#1A3C2F"/>
<circle cx="994" cy="890" r="6" fill="#1A3C2F"/>
<circle cx="1046" cy="890" r="6" fill="#1A3C2F"/>
<circle cx="1098" cy="890" r="6" fill="#1A3C2F"/>
<circle cx="1150" cy="890" r="6" fill="#1A3C2F"/>
<circle cx="1202" cy="890" r="6" fill="#1A3C2F"/>
<circle cx="1254" cy="890" r="6" fill="#1A3C2F"/>
<circle cx="1306" cy="890" r="6" fill="#1A3C2F"/>
<circle cx="1358" cy="890" r="6" fill="#1A3C2F"/>
<circle cx="1410" cy="890" r="6" fill="#1A3C2F"/>
<circle cx="1462" cy="890" r="6" fill="#1A3C2F"/>
<circle cx="1514" cy="890" r="6" fill="#1A3C2F"/>
<circle cx="1566" cy="890" r="6" fill="#1A3C2F"/>
<circle cx="1618" cy="890" r="6" fill="#1A3C2F"/>
<circle cx="1670" cy="890" r="6" fill="#1A3C2F"/>
<circle cx="1722" cy="890" r="6" fill="#1A3C2F"/>
<circle cx="1774" cy="890" r="6" fill="#1A3C2F"/>
<circle cx="1826" cy="890" r="6" fill="#1A3C2F"/>
<circle cx="1878" cy="890" r="6" fill="#1A3C2F"/>
<circle cx="6" cy="942" r="6" fill="#1A3C2F"/>
<circle cx="58" cy="942" r="6" fill="#1A3C2F"/>
<circle cx="110" cy="942" r="6" fill="#1A3C2F"/>
<circle cx="162" cy="942" r="6" fill="#1A3C2F"/>
<circle cx="214" cy="942" r="6" fill="#1A3C2F"/>
<circle cx="266" cy="942" r="6" fill="#1A3C2F"/>
<circle cx="318" cy="942" r="6" fill="#1A3C2F"/>
<circle cx="370" cy="942" r="6" fill="#1A3C2F"/>
<circle cx="422" cy="942" r="6" fill="#1A3C2F"/>
<circle cx="474" cy="942" r="6" fill="#1A3C2F"/>
<circle cx="526" cy="942" r="6" fill="#1A3C2F"/>
<circle cx="578" cy="942" r="6" fill="#1A3C2F"/>
<circle cx="630" cy="942" r="6" fill="#1A3C2F"/>
<circle cx="682" cy="942" r="6" fill="#1A3C2F"/>
<circle cx="734" cy="942" r="6" fill="#1A3C2F"/>
<circle cx="786" cy="942" r="6" fill="#1A3C2F"/>
<circle cx="838" cy="942" r="6" fill="#1A3C2F"/>
<circle cx="890" cy="942" r="6" fill="#1A3C2F"/>
<circle cx="942" cy="942" r="6" fill="#1A3C2F"/>
<circle cx="994" cy="942" r="6" fill="#1A3C2F"/>
<circle cx="1046" cy="942" r="6" fill="#1A3C2F"/>
<circle cx="1098" cy="942" r="6" fill="#1A3C2F"/>
<circle cx="1150" cy="942" r="6" fill="#1A3C2F"/>
<circle cx="1202" cy="942" r="6" fill="#1A3C2F"/>
<circle cx="1254" cy="942" r="6" fill="#1A3C2F"/>
<circle cx="1306" cy="942" r="6" fill="#1A3C2F"/>
<circle cx="1358" cy="942" r="6" fill="#1A3C2F"/>
<circle cx="1410" cy="942" r="6" fill="#1A3C2F"/>
<circle cx="1462" cy="942" r="6" fill="#1A3C2F"/>
<circle cx="1514" cy="942" r="6" fill="#1A3C2F"/>
<circle cx="1566" cy="942" r="6" fill="#1A3C2F"/>
<circle cx="1618" cy="942" r="6" fill="#1A3C2F"/>
<circle cx="1670" cy="942" r="6" fill="#1A3C2F"/>
<circle cx="1722" cy="942" r="6" fill="#1A3C2F"/>
<circle cx="1774" cy="942" r="6" fill="#1A3C2F"/>
<circle cx="1826" cy="942" r="6" fill="#1A3C2F"/>
<circle cx="1878" cy="942" r="6" fill="#1A3C2F"/>
<circle cx="6" cy="994" r="6" fill="#1A3C2F"/>
<circle cx="58" cy="994" r="6" fill="#1A3C2F"/>
<circle cx="110" cy="994" r="6" fill="#1A3C2F"/>
<circle cx="162" cy="994" r="6" fill="#1A3C2F"/>
<circle cx="214" cy="994" r="6" fill="#1A3C2F"/>
<circle cx="266" cy="994" r="6" fill="#1A3C2F"/>
<circle cx="318" cy="994" r="6" fill="#1A3C2F"/>
<circle cx="370" cy="994" r="6" fill="#1A3C2F"/>
<circle cx="422" cy="994" r="6" fill="#1A3C2F"/>
<circle cx="474" cy="994" r="6" fill="#1A3C2F"/>
<circle cx="526" cy="994" r="6" fill="#1A3C2F"/>
<circle cx="578" cy="994" r="6" fill="#1A3C2F"/>
<circle cx="630" cy="994" r="6" fill="#1A3C2F"/>
<circle cx="682" cy="994" r="6" fill="#1A3C2F"/>
<circle cx="734" cy="994" r="6" fill="#1A3C2F"/>
<circle cx="786" cy="994" r="6" fill="#1A3C2F"/>
<circle cx="838" cy="994" r="6" fill="#1A3C2F"/>
<circle cx="890" cy="994" r="6" fill="#1A3C2F"/>
<circle cx="942" cy="994" r="6" fill="#1A3C2F"/>
<circle cx="994" cy="994" r="6" fill="#1A3C2F"/>
<circle cx="1046" cy="994" r="6" fill="#1A3C2F"/>
<circle cx="1098" cy="994" r="6" fill="#1A3C2F"/>
<circle cx="1150" cy="994" r="6" fill="#1A3C2F"/>
<circle cx="1202" cy="994" r="6" fill="#1A3C2F"/>
<circle cx="1254" cy="994" r="6" fill="#1A3C2F"/>
<circle cx="1306" cy="994" r="6" fill="#1A3C2F"/>
<circle cx="1358" cy="994" r="6" fill="#1A3C2F"/>
<circle cx="1410" cy="994" r="6" fill="#1A3C2F"/>
<circle cx="1462" cy="994" r="6" fill="#1A3C2F"/>
<circle cx="1514" cy="994" r="6" fill="#1A3C2F"/>
<circle cx="1566" cy="994" r="6" fill="#1A3C2F"/>
<circle cx="1618" cy="994" r="6" fill="#1A3C2F"/>
<circle cx="1670" cy="994" r="6" fill="#1A3C2F"/>
<circle cx="1722" cy="994" r="6" fill="#1A3C2F"/>
<circle cx="1774" cy="994" r="6" fill="#1A3C2F"/>
<circle cx="1826" cy="994" r="6" fill="#1A3C2F"/>
<circle cx="1878" cy="994" r="6" fill="#1A3C2F"/>
<circle cx="6" cy="1046" r="6" fill="#1A3C2F"/>
<circle cx="58" cy="1046" r="6" fill="#1A3C2F"/>
<circle cx="110" cy="1046" r="6" fill="#1A3C2F"/>
<circle cx="162" cy="1046" r="6" fill="#1A3C2F"/>
<circle cx="214" cy="1046" r="6" fill="#1A3C2F"/>
<circle cx="266" cy="1046" r="6" fill="#1A3C2F"/>
<circle cx="318" cy="1046" r="6" fill="#1A3C2F"/>
<circle cx="370" cy="1046" r="6" fill="#1A3C2F"/>
<circle cx="422" cy="1046" r="6" fill="#1A3C2F"/>
<circle cx="474" cy="1046" r="6" fill="#1A3C2F"/>
<circle cx="526" cy="1046" r="6" fill="#1A3C2F"/>
<circle cx="578" cy="1046" r="6" fill="#1A3C2F"/>
<circle cx="630" cy="1046" r="6" fill="#1A3C2F"/>
<circle cx="682" cy="1046" r="6" fill="#1A3C2F"/>
<circle cx="734" cy="1046" r="6" fill="#1A3C2F"/>
<circle cx="786" cy="1046" r="6" fill="#1A3C2F"/>
<circle cx="838" cy="1046" r="6" fill="#1A3C2F"/>
<circle cx="890" cy="1046" r="6" fill="#1A3C2F"/>
<circle cx="942" cy="1046" r="6" fill="#1A3C2F"/>
<circle cx="994" cy="1046" r="6" fill="#1A3C2F"/>
<circle cx="1046" cy="1046" r="6" fill="#1A3C2F"/>
<circle cx="1098" cy="1046" r="6" fill="#1A3C2F"/>
<circle cx="1150" cy="1046" r="6" fill="#1A3C2F"/>
<circle cx="1202" cy="1046" r="6" fill="#1A3C2F"/>
<circle cx="1254" cy="1046" r="6" fill="#1A3C2F"/>
<circle cx="1306" cy="1046" r="6" fill="#1A3C2F"/>
<circle cx="1358" cy="1046" r="6" fill="#1A3C2F"/>
<circle cx="1410" cy="1046" r="6" fill="#1A3C2F"/>
<circle cx="1462" cy="1046" r="6" fill="#1A3C2F"/>
<circle cx="1514" cy="1046" r="6" fill="#1A3C2F"/>
<circle cx="1566" cy="1046" r="6" fill="#1A3C2F"/>
<circle cx="1618" cy="1046" r="6" fill="#1A3C2F"/>
<circle cx="1670" cy="1046" r="6" fill="#1A3C2F"/>
<circle cx="1722" cy="1046" r="6" fill="#1A3C2F"/>
<circle cx="1774" cy="1046" r="6" fill="#1A3C2F"/>
<circle cx="1826" cy="1046" r="6" fill="#1A3C2F"/>
<circle cx="1878" cy="1046" r="6" fill="#1A3C2F"/>
</g>
<defs>
<clipPath id="clip0_1_963">
<rect width="1920" height="1092" fill="white"/>
</clipPath>
</defs>
</svg>
