<?xml version="1.0" encoding="UTF-8"?><svg id="_レイヤー_2" xmlns="http://www.w3.org/2000/svg" viewBox="0 0 500 500"><defs><style>.cls-1{fill:#fff;stroke-width:0px;}</style></defs><g id="Layer_1"><path class="cls-1" d="M157.19,482.19c-3.12-28.44-.94-55.62,5.31-81.87l25-107.81c-4.06-13.12-7.19-28.13-7.19-43.13,0-35,16.88-60,43.44-60,18.44,0,31.88,12.81,31.88,37.5,0,7.81-1.56,16.56-4.69,26.56l-10.94,35.94c-2.19,6.88-3.12,13.44-3.12,19.06,0,25,19.06,39.06,43.44,39.06,43.44,0,74.38-45,74.38-103.44,0-65-42.5-106.56-105.31-106.56-70,0-114.37,45.63-114.37,109.06,0,25.62,7.81,49.37,23.13,65.62-5,8.44-10.31,10-18.44,10-25,0-48.75-35.31-48.75-83.44,0-83.13,66.56-149.37,160-149.37,98.12,0,159.69,68.44,159.69,152.81s-60,148.75-124.69,148.75c-25.63,0-48.13-10.94-63.75-30.63l-12.81,51.88c-6.88,26.87-17.19,52.19-33.75,76.56,23.44,7.19,46.56,11.25,74.38,11.25,138.12,0,250-111.88,250-250S388.13,0,250,0,0,111.88,0,250c0,104.69,64.38,195,157.19,232.19"/></g></svg>